{
	"asset":{
		"generator":"Khronos glTF Blender I/O v4.0.44",
		"version":"2.0"
	},
	"scene":0,
	"scenes":[
		{
			"name":"Scene",
			"nodes":[
				0,
				1,
				2,
				3,
				4,
				5,
				6
			]
		}
	],
	"nodes":[
		{
			"mesh":0,
			"name":"eau de parfum",
			"rotation":[
				0.5000000596046448,
				0.5000000596046448,
				-0.5000000596046448,
				0.5
			],
			"scale":[
				0.19599224627017975,
				0.19599224627017975,
				0.19599224627017975
			],
			"translation":[
				0.9191757440567017,
				1.9016578197479248,
				0.699702262878418
			]
		},
		{
			"mesh":1,
			"name":"made with love",
			"rotation":[
				0.5000000596046448,
				0.5000000596046448,
				-0.5000000596046448,
				0.5
			],
			"scale":[
				0.08793049305677414,
				0.08793049305677414,
				0.08793049305677414
			],
			"translation":[
				0.9800624251365662,
				0.3858392536640167,
				0.6356011629104614
			]
		},
		{
			"mesh":2,
			"name":"made with love.001",
			"rotation":[
				0.5,
				0.5,
				-0.5,
				0.4999999701976776
			],
			"scale":[
				0.16922083497047424,
				0.16922083497047424,
				0.16922083497047424
			],
			"translation":[
				1.016608476638794,
				0.716952383518219,
				0.683436930179596
			]
		},
		{
			"mesh":3,
			"name":"WOUQ",
			"rotation":[
				0.5,
				0.5,
				-0.5,
				0.4999999701976776
			],
			"scale":[
				0.38058263063430786,
				0.38058263063430786,
				0.38058263063430786
			],
			"translation":[
				0.802306056022644,
				2.1442596912384033,
				0.6807956695556641
			]
		},
		{
			"mesh":4,
			"name":"bottle",
			"scale":[
				0.8002408146858215,
				1.3170475959777832,
				0.8002408146858215
			],
			"translation":[
				0,
				1.5086482763290405,
				0
			]
		},
		{
			"mesh":5,
			"name":"cap",
			"scale":[
				0.4643070697784424,
				0.4643070697784424,
				0.47210925817489624
			],
			"translation":[
				0,
				3.371413230895996,
				0
			]
		},
		{
			"mesh":6,
			"name":"spraycap",
			"scale":[
				0.8002408146858215,
				1.3170475959777832,
				0.8002408146858215
			],
			"translation":[
				0,
				1.5086482763290405,
				0
			]
		}
	],
	"animations":[
		{
			"channels":[
				{
					"sampler":0,
					"target":{
						"node":5,
						"path":"translation"
					}
				},
				{
					"sampler":1,
					"target":{
						"node":5,
						"path":"rotation"
					}
				}
			],
			"name":"capAction",
			"samplers":[
				{
					"input":28,
					"interpolation":"LINEAR",
					"output":29
				},
				{
					"input":28,
					"interpolation":"LINEAR",
					"output":30
				}
			]
		},
		{
			"channels":[
				{
					"sampler":0,
					"target":{
						"node":6,
						"path":"translation"
					}
				}
			],
			"name":"spraycapAction",
			"samplers":[
				{
					"input":31,
					"interpolation":"LINEAR",
					"output":32
				}
			]
		}
	],
	"materials":[
		{
			"doubleSided":true,
			"name":"Text",
			"pbrMetallicRoughness":{
				"baseColorFactor":[
					0,
					0,
					0,
					1
				],
				"metallicFactor":0,
				"roughnessFactor":0.5
			}
		},
		{
			"doubleSided":true,
			"name":"bottle",
			"pbrMetallicRoughness":{
				"baseColorFactor":[
					0.23732158541679382,
					0.801350474357605,
					0.743530809879303,
					1
				],
				"metallicFactor":0.8976377844810486,
				"roughnessFactor":0.5787401795387268
			}
		},
		{
			"doubleSided":true,
			"name":"cap",
			"pbrMetallicRoughness":{
				"baseColorFactor":[
					0,
					0,
					0,
					1
				],
				"metallicFactor":0.8809524178504944,
				"roughnessFactor":0.3333333134651184
			}
		},
		{
			"doubleSided":true,
			"name":"spray cap",
			"pbrMetallicRoughness":{
				"baseColorFactor":[
					0.7280458211898804,
					0.7323708534240723,
					0.8002276420593262,
					1
				],
				"metallicFactor":0.9763779640197754,
				"roughnessFactor":0.5
			}
		}
	],
	"meshes":[
		{
			"name":"Text.002",
			"primitives":[
				{
					"attributes":{
						"POSITION":0,
						"NORMAL":1,
						"TEXCOORD_0":2
					},
					"indices":3,
					"material":0
				}
			]
		},
		{
			"name":"Text.001",
			"primitives":[
				{
					"attributes":{
						"POSITION":4,
						"NORMAL":5,
						"TEXCOORD_0":6
					},
					"indices":7,
					"material":0
				}
			]
		},
		{
			"name":"Text.005",
			"primitives":[
				{
					"attributes":{
						"POSITION":8,
						"NORMAL":9,
						"TEXCOORD_0":10
					},
					"indices":11,
					"material":0
				}
			]
		},
		{
			"name":"Text",
			"primitives":[
				{
					"attributes":{
						"POSITION":12,
						"NORMAL":13,
						"TEXCOORD_0":14
					},
					"indices":15,
					"material":0
				}
			]
		},
		{
			"name":"Mesh",
			"primitives":[
				{
					"attributes":{
						"POSITION":16,
						"NORMAL":17,
						"TEXCOORD_0":18
					},
					"indices":19,
					"material":1
				}
			]
		},
		{
			"name":"Cylinder.001",
			"primitives":[
				{
					"attributes":{
						"POSITION":20,
						"NORMAL":21,
						"TEXCOORD_0":22
					},
					"indices":23,
					"material":2
				}
			]
		},
		{
			"name":"Cylinder.005",
			"primitives":[
				{
					"attributes":{
						"POSITION":24,
						"NORMAL":25,
						"TEXCOORD_0":26
					},
					"indices":27,
					"material":3
				}
			]
		}
	],
	"accessors":[
		{
			"bufferView":0,
			"componentType":5126,
			"count":2243,
			"max":[
				5.299112319946289,
				-0.593958854675293,
				0.2309337854385376
			],
			"min":[
				1.1253600120544434,
				-1.4096145629882812,
				-0.689532995223999
			],
			"type":"VEC3"
		},
		{
			"bufferView":1,
			"componentType":5126,
			"count":2243,
			"type":"VEC3"
		},
		{
			"bufferView":2,
			"componentType":5126,
			"count":2243,
			"type":"VEC2"
		},
		{
			"bufferView":3,
			"componentType":5123,
			"count":2811,
			"type":"SCALAR"
		},
		{
			"bufferView":4,
			"componentType":5126,
			"count":4514,
			"max":[
				12.338216781616211,
				-2.04238224029541,
				0.07355022430419922
			],
			"min":[
				2.3126583099365234,
				-3.616457462310791,
				-0.9211549758911133
			],
			"type":"VEC3"
		},
		{
			"bufferView":5,
			"componentType":5126,
			"count":4514,
			"type":"VEC3"
		},
		{
			"bufferView":6,
			"componentType":5126,
			"count":4514,
			"type":"VEC2"
		},
		{
			"bufferView":7,
			"componentType":5123,
			"count":5556,
			"type":"SCALAR"
		},
		{
			"bufferView":8,
			"componentType":5126,
			"count":1892,
			"max":[
				3.7270829677581787,
				-1.2853965759277344,
				0.9541869163513184
			],
			"min":[
				1.416961908340454,
				-2.058913230895996,
				-0.7081608772277832
			],
			"type":"VEC3"
		},
		{
			"bufferView":9,
			"componentType":5126,
			"count":1892,
			"type":"VEC3"
		},
		{
			"bufferView":10,
			"componentType":5126,
			"count":1892,
			"type":"VEC2"
		},
		{
			"bufferView":11,
			"componentType":5123,
			"count":2367,
			"type":"SCALAR"
		},
		{
			"bufferView":12,
			"componentType":5126,
			"count":902,
			"max":[
				3.044036865234375,
				0.0006873607635498047,
				0.14039039611816406
			],
			"min":[
				0.42557644844055176,
				-0.5015469789505005,
				-0.6905938386917114
			],
			"type":"VEC3"
		},
		{
			"bufferView":13,
			"componentType":5126,
			"count":902,
			"type":"VEC3"
		},
		{
			"bufferView":14,
			"componentType":5126,
			"count":902,
			"type":"VEC2"
		},
		{
			"bufferView":15,
			"componentType":5123,
			"count":921,
			"type":"SCALAR"
		},
		{
			"bufferView":16,
			"componentType":5126,
			"count":5201,
			"max":[
				0.993370771408081,
				1.0773534774780273,
				0.993370771408081
			],
			"min":[
				-0.993370771408081,
				-1.0254466533660889,
				-0.9933708906173706
			],
			"type":"VEC3"
		},
		{
			"bufferView":17,
			"componentType":5126,
			"count":5201,
			"type":"VEC3"
		},
		{
			"bufferView":18,
			"componentType":5126,
			"count":5201,
			"type":"VEC2"
		},
		{
			"bufferView":19,
			"componentType":5123,
			"count":24768,
			"type":"SCALAR"
		},
		{
			"bufferView":20,
			"componentType":5126,
			"count":15711,
			"max":[
				0.9999499917030334,
				1,
				0.9999499917030334
			],
			"min":[
				-0.9999499917030334,
				-1,
				-0.9999499917030334
			],
			"type":"VEC3"
		},
		{
			"bufferView":21,
			"componentType":5126,
			"count":15711,
			"type":"VEC3"
		},
		{
			"bufferView":22,
			"componentType":5126,
			"count":15711,
			"type":"VEC2"
		},
		{
			"bufferView":23,
			"componentType":5123,
			"count":30132,
			"type":"SCALAR"
		},
		{
			"bufferView":24,
			"componentType":5126,
			"count":668,
			"max":[
				0.4389554262161255,
				1.460850715637207,
				0.40276458859443665
			],
			"min":[
				-0.40276458859443665,
				1.081496238708496,
				-0.40276458859443665
			],
			"type":"VEC3"
		},
		{
			"bufferView":25,
			"componentType":5126,
			"count":668,
			"type":"VEC3"
		},
		{
			"bufferView":26,
			"componentType":5126,
			"count":668,
			"type":"VEC2"
		},
		{
			"bufferView":27,
			"componentType":5123,
			"count":1356,
			"type":"SCALAR"
		},
		{
			"bufferView":28,
			"componentType":5126,
			"count":120,
			"max":[
				5
			],
			"min":[
				0.041666666666666664
			],
			"type":"SCALAR"
		},
		{
			"bufferView":29,
			"componentType":5126,
			"count":120,
			"type":"VEC3"
		},
		{
			"bufferView":30,
			"componentType":5126,
			"count":120,
			"type":"VEC4"
		},
		{
			"bufferView":31,
			"componentType":5126,
			"count":31,
			"max":[
				3.125
			],
			"min":[
				1.875
			],
			"type":"SCALAR"
		},
		{
			"bufferView":32,
			"componentType":5126,
			"count":31,
			"type":"VEC3"
		}
	],
	"bufferViews":[
		{
			"buffer":0,
			"byteLength":26916,
			"byteOffset":0,
			"target":34962
		},
		{
			"buffer":0,
			"byteLength":26916,
			"byteOffset":26916,
			"target":34962
		},
		{
			"buffer":0,
			"byteLength":17944,
			"byteOffset":53832,
			"target":34962
		},
		{
			"buffer":0,
			"byteLength":5622,
			"byteOffset":71776,
			"target":34963
		},
		{
			"buffer":0,
			"byteLength":54168,
			"byteOffset":77400,
			"target":34962
		},
		{
			"buffer":0,
			"byteLength":54168,
			"byteOffset":131568,
			"target":34962
		},
		{
			"buffer":0,
			"byteLength":36112,
			"byteOffset":185736,
			"target":34962
		},
		{
			"buffer":0,
			"byteLength":11112,
			"byteOffset":221848,
			"target":34963
		},
		{
			"buffer":0,
			"byteLength":22704,
			"byteOffset":232960,
			"target":34962
		},
		{
			"buffer":0,
			"byteLength":22704,
			"byteOffset":255664,
			"target":34962
		},
		{
			"buffer":0,
			"byteLength":15136,
			"byteOffset":278368,
			"target":34962
		},
		{
			"buffer":0,
			"byteLength":4734,
			"byteOffset":293504,
			"target":34963
		},
		{
			"buffer":0,
			"byteLength":10824,
			"byteOffset":298240,
			"target":34962
		},
		{
			"buffer":0,
			"byteLength":10824,
			"byteOffset":309064,
			"target":34962
		},
		{
			"buffer":0,
			"byteLength":7216,
			"byteOffset":319888,
			"target":34962
		},
		{
			"buffer":0,
			"byteLength":1842,
			"byteOffset":327104,
			"target":34963
		},
		{
			"buffer":0,
			"byteLength":62412,
			"byteOffset":328948,
			"target":34962
		},
		{
			"buffer":0,
			"byteLength":62412,
			"byteOffset":391360,
			"target":34962
		},
		{
			"buffer":0,
			"byteLength":41608,
			"byteOffset":453772,
			"target":34962
		},
		{
			"buffer":0,
			"byteLength":49536,
			"byteOffset":495380,
			"target":34963
		},
		{
			"buffer":0,
			"byteLength":188532,
			"byteOffset":544916,
			"target":34962
		},
		{
			"buffer":0,
			"byteLength":188532,
			"byteOffset":733448,
			"target":34962
		},
		{
			"buffer":0,
			"byteLength":125688,
			"byteOffset":921980,
			"target":34962
		},
		{
			"buffer":0,
			"byteLength":60264,
			"byteOffset":1047668,
			"target":34963
		},
		{
			"buffer":0,
			"byteLength":8016,
			"byteOffset":1107932,
			"target":34962
		},
		{
			"buffer":0,
			"byteLength":8016,
			"byteOffset":1115948,
			"target":34962
		},
		{
			"buffer":0,
			"byteLength":5344,
			"byteOffset":1123964,
			"target":34962
		},
		{
			"buffer":0,
			"byteLength":2712,
			"byteOffset":1129308,
			"target":34963
		},
		{
			"buffer":0,
			"byteLength":480,
			"byteOffset":1132020
		},
		{
			"buffer":0,
			"byteLength":1440,
			"byteOffset":1132500
		},
		{
			"buffer":0,
			"byteLength":1920,
			"byteOffset":1133940
		},
		{
			"buffer":0,
			"byteLength":124,
			"byteOffset":1135860
		},
		{
			"buffer":0,
			"byteLength":372,
			"byteOffset":1135984
		}
	],
	"buffers":[
		{
			"byteLength":1136356,
			"uri":"perfume.bin"
		}
	]
}
