<?xml version="1.0" encoding="utf-8"?>
<!-- Generator: Adobe Illustrator 27.3.1, SVG Export Plug-In . SVG Version: 6.00 Build 0)  -->
<svg version="1.1"
	 id="svg171" xmlns:dc="http://purl.org/dc/elements/1.1/" xmlns:rdf="http://www.w3.org/1999/02/22-rdf-syntax-ns#" xmlns:cc="http://creativecommons.org/ns#"
	 xmlns="http://www.w3.org/2000/svg" xmlns:xlink="http://www.w3.org/1999/xlink" x="0px" y="0px" viewBox="0 0 799.9 364.8"
	 style="enable-background:new 0 0 799.9 364.8;" xml:space="preserve">
<style type="text/css">
	.st0{fill-rule:evenodd;clip-rule:evenodd;fill:#60585A;}
	.st1{fill:#4A00AD;}
	.st2{fill-rule:evenodd;clip-rule:evenodd;fill:#4A00AD;}
	.st3{fill-rule:evenodd;clip-rule:evenodd;fill:#D61B16;stroke:#000000;}
	.st4{fill-rule:evenodd;clip-rule:evenodd;fill:#D61B16;}
	.st5{fill-rule:evenodd;clip-rule:evenodd;fill:#D61B16;stroke:#000000;stroke-opacity:0.4591;}
	.st6{fill-rule:evenodd;clip-rule:evenodd;fill:#D7211C;}
	.st7{fill-rule:evenodd;clip-rule:evenodd;fill-opacity:0.7044;stroke:#000000;}
	.st8{fill-rule:evenodd;clip-rule:evenodd;fill-opacity:0.7862;stroke:#000000;}
	.st9{fill-rule:evenodd;clip-rule:evenodd;stroke:#000000;stroke-width:1.25;stroke-opacity:0.5535;}
	.st10{fill-rule:evenodd;clip-rule:evenodd;stroke:#000000;stroke-opacity:0.5472;}
	
		.st11{fill-rule:evenodd;clip-rule:evenodd;fill:#2E87CF;fill-opacity:0.566;stroke:#000000;stroke-width:1.082;stroke-opacity:0.2516;}
	.st12{fill:none;stroke:#000000;stroke-opacity:0.3711;}
	.st13{fill-rule:evenodd;clip-rule:evenodd;fill-opacity:0.6855;stroke:#000000;}
	.st14{fill:none;stroke:#000000;}
	.st15{fill-rule:evenodd;clip-rule:evenodd;fill:#D61B16;fill-opacity:0.7484;stroke:#000000;}
</style>
<path id="rect959" class="st0" d="M167.5,31.5v10.6c0,4.7-3.8,8.6-8.6,8.6H97.3c-4.7,0-8.6-3.8-8.6-8.6V31.5c0-4.7,3.8-8.6,8.6-8.6
	h61.5C163.6,22.9,167.5,26.7,167.5,31.5z"/>
<path id="rect958" class="st0" d="M177.5,326.5v10.6c0,4.7-3.8,8.6-8.6,8.6h-61.5c-4.7,0-8.6-3.8-8.6-8.6v-10.6
	c0-4.7,3.8-8.6,8.6-8.6h61.5C173.6,317.9,177.5,321.7,177.5,326.5z"/>
<g id="g786" transform="matrix(-1 0 0 -1 282.65 766.12)">
	<path id="path787" class="st1" d="M-440.9,553.5c0.3-5.5,0.4-11.1-0.3-16.6c-0.7-3.6-3.8-11.5-8.7-7.7c-5,5.2-4.3,14.5-3.7,21.2
		l-6,0.5c-0.8-9.1-1-20.2,6.3-26.8c9.5-6,16.4,3.4,18,12c0.7,5.8,0.3,11.6,0.7,17.4L-440.9,553.5L-440.9,553.5z"/>
	<path id="path788" class="st1" d="M-472.5,553.5c-0.3-5.5-0.4-11.1,0.3-16.6c0.7-3.6,3.8-11.5,8.7-7.7c5,5.2,4.3,14.5,3.7,21.2
		l6,0.5c0.8-9.1,1-20.2-6.3-26.8c-9.5-6-16.4,3.4-18,12c-0.7,5.8-0.3,11.6-0.7,17.4L-472.5,553.5L-472.5,553.5z"/>
	<path id="path789" class="st1" d="M-458.8,574.8c0.2-2.1,0.1-4.2,0.1-6.3c0-1.8,0.9-7.6-1-8.7c-1.4-0.4-2.9,0.3-3.7,1.4
		c-1.4,2.8-0.7,6.5-0.6,9.4c0.2,3.6,0.6,8.5-3.8,9.6c-3.6,0.3-7-1.9-9.1-4.7c-2.3-3.7-1.9-7.9-1.3-12c0.3-2.5,0.7-4.9,1-7.4l3.8,0.5
		c-0.3,2.5-0.7,4.9-1,7.4c-0.4,3-0.9,6.5,0.7,9.2c1.1,1.6,3.2,3.1,5.2,3.1c1.5,0,0.9-4.7,0.9-5.6c-0.2-4-0.9-8.3,1.2-12
		c2.2-2.9,6.4-4.2,9.5-1.9c2.8,3,2.1,7.8,2.1,11.6c0,2.1-0.1,4.2,0.1,6.3h-4.1V574.8z"/>
	<g id="g790" transform="matrix(1.166 0 0 1.0624 -26.21 -45.238)">
		<path id="path791" class="st1" d="M-367.6,586.7c-0.2,2.3-0.1,4.6-0.1,6.9c0,4.3,0,8.5,0,12.8c0,0.9,0,1.7,0,2.6h-2.9
			c0-0.9,0-1.7,0-2.6c0-4.3,0-8.5,0-12.8c0-2.3,0.1-4.6-0.1-6.9H-367.6L-367.6,586.7z"/>
		<path id="path792" class="st1" d="M-369.8,599.3c-1.1-0.2-2.3-0.1-3.5-0.1c-2.3,0-4.5,0-6.8,0c-1.5,0-3,0-4.5,0
			c-0.9,0-1.8,0-2.7,0v-3.6c0.9,0,1.8,0,2.7,0c1.5,0,3,0,4.5,0c2.3,0,4.5,0,6.8,0c1.1,0,2.3,0.1,3.5-0.1
			C-369.8,595.5-369.8,599.3-369.8,599.3z"/>
	</g>
	<g id="g793">
		<path id="path794" class="st1" d="M-455.6,606.3c-1.7-0.2-3.5-0.1-5.2-0.1c-4.3,0-8.6-0.1-12.9,0c-1.4,0-2.8,0-4.2,0.1V603
			c1.4,0,2.8,0,4.2,0.1c4.3,0,8.6,0,12.9,0c1.7,0,3.5,0.1,5.2-0.1V606.3L-455.6,606.3z"/>
		<path id="path795" class="st1" d="M-454.6,604.3c-0.2,1.4-0.1,2.9-0.1,4.3c-0.1,3-1,5.7-4.4,6.1c-3.4,0.1-5.4-1.8-6.1-5.1
			c-0.2-1.5-0.1-3.1,0-4.6l3.2,0.4c-0.1,1.2-0.2,2.4-0.1,3.6c0.3,1.6,0.9,2.4,2.6,2.4c1.5-0.1,1.5-1.6,1.5-2.9
			c0-1.4,0.1-2.8-0.1-4.2H-454.6L-454.6,604.3z"/>
		<path id="path796" class="st1" d="M-463.6,605.6c-0.1,1.2-0.1,2.5-0.1,3.7c0,2.6,0.2,5.6-1.5,7.8c-2,1.9-4.4,1.2-6.7,0.5
			c-1.6-0.5-3.1-0.9-4.8-0.9c-0.3,0-0.6,0-1,0l-0.1-3.3c0.4,0,0.8,0,1.1,0c1.9,0.1,3.7,0.5,5.6,1.1c0.8,0.3,2.4,1,3.3,0.5
			c1.3-1.1,0.8-4.2,0.8-5.6c0-1.2,0.1-2.5-0.1-3.7L-463.6,605.6L-463.6,605.6z"/>
		<rect id="rect797" x="-457.6" y="602.9" class="st2" width="3" height="2.4"/>
	</g>
	<path id="path798" class="st2" d="M-466.5,642.3c-7,0-12.6-5.2-12.6-11.6c0-6.4,5.6-11.6,12.6-11.6s12.6,5.2,12.6,11.6
		S-459.5,642.3-466.5,642.3L-466.5,642.3z M-466.2,638.6c-4.7,0-8.6-3.5-8.6-7.9s3.8-7.9,8.6-7.9c4.7,0,8.6,3.5,8.6,7.9
		C-457.6,635-461.4,638.6-466.2,638.6z"/>
</g>
<path id="rect317" class="st0" d="M692.5,334v10.6c0,4.7-3.8,8.6-8.6,8.6h-61.5c-4.7,0-8.6-3.8-8.6-8.6V334c0-4.7,3.8-8.6,8.6-8.6
	h61.5C688.6,325.4,692.5,329.2,692.5,334z"/>
<path id="rect316" class="st0" d="M689.4,23.8v10.6c0,4.7-3.8,8.6-8.6,8.6h-61.5c-4.7,0-8.6-3.8-8.6-8.6V23.8c0-4.7,3.8-8.6,8.6-8.6
	h61.5C685.5,15.2,689.4,19.1,689.4,23.8z"/>
<path id="path184" class="st3" d="M7.5,185.3C5.2,72.3,25.4,54.9,28.8,38.2c38.8-16.7,365.7-19.9,392.5-9.9
	c60.5,7.5,70.6-4.9,143.5-8.7c85.2-7.1,37.8,9.8,124.5-4.4c90.2,21.7,92.1-19.1,100.6,168.5c-2.4,172.2-10.4,148-100.6,169.6
	c-86.7-14.3-39.3,2.7-124.5-4.4c-73-3.8-83-16.2-143.5-8.7c-26.7,10-353.7,6.9-392.5-9.9C13.6,304.2,7.5,234.9,7.5,185.3L7.5,185.3z
	"/>
<path id="path272" class="st4" d="M508.6,48.1l-82.4,21.5c0,0-154.6,0-157.2-3.1s-46.4-27.7-46.4-27.7S503.5,45.1,508.6,48.1
	L508.6,48.1z"/>
<path id="path274" class="st4" d="M513.6,325.4l-82.4-21.5c0,0-154.6,0-157.2,3.1c-2.6,3.1-46.4,27.7-46.4,27.7
	S508.5,328.5,513.6,325.4L513.6,325.4z"/>
<path id="path230" class="st5" d="M746,43.8C727.3,32.1,549.8,33,535.8,51.6c14.9,18,28.6,122.5,27.4,142.3
	c1.5,20.3-8.1,99.7-22.7,124.1c-2.1,6.6,205.5,19.7,219.5,1.1C776.3,260.8,776.3,67.1,746,43.8L746,43.8z"/>
<path id="path275" class="st6" d="M533.1,48.4c0,0,26.9,65.5,27.6,138.6c0.6,65.8-9.6,95.6-25,135.6c-48.8-4.9-94.9-9.7-110.3-21.8
	c28.2-111.6,28.2-118.9,0-230.6C440.7,67.8,530.5,45.9,533.1,48.4L533.1,48.4z"/>
<path id="path185" class="st7" d="M530.3,52.1c0,0,24.8,63.8,25.4,134.9c0.6,64.1-8.9,93-23,132c-44.9-4.7-87.4-9.4-101.6-21.3
	c26-108.7,26-115.8,0-224.4C445.3,71,527.9,49.8,530.3,52.1L530.3,52.1z"/>
<path id="path270" class="st4" d="M259.1,82.3C199.7,69.9,85.9,60,85.9,60C68.6,79.8,61.2,181.2,61.2,183.7
	c0,7.4,7.4,108.8,32.2,126.2c14.8,0,121.2-9.9,168.2-19.8C249.2,203.5,254.1,87.3,259.1,82.3L259.1,82.3z"/>
<path id="path188" class="st8" d="M253.9,87.5C197.2,75.7,88.6,66.3,88.6,66.3C72,85.2,64.9,182,64.9,184.4
	c0,7.1,7.1,103.9,30.7,120.5c14.2,0,115.8-9.5,160.6-18.9C244.5,203.3,249.2,92.3,253.9,87.5L253.9,87.5z"/>
<path id="path189" class="st9" d="M511.4,328.5l-2.4,28.3c0,0-14.2,14.2-21.3,4.7c-7.1-9.5,2.4-33.1,2.4-33.1h21.3V328.5z"/>
<path id="path190" class="st10" d="M506.7,43.5l-2.4-28.3c0,0-14.2-14.2-21.3-4.7c-7.1,9.4,2.4,33.1,2.4,33.1L506.7,43.5z"/>
<path id="path304" class="st11" d="M773.5,59.2c-1.6-9-19-19.3-21.9-14.6c5.7,11.3,13.5,33.3,15.7,55c2.3,4.3,9.4,10.1,10.9,10.4
	C779,95.1,775.4,69,773.5,59.2z"/>
<path id="path306" class="st11" d="M778.4,305.3c-1.6,9-14.6,19.3-17.5,14.6c5.7-11.3,7.5-33.3,9.7-55c2.3-4.3,11-10.1,12.6-10.4
	C783.9,269.4,780.3,295.5,778.4,305.3L778.4,305.3z"/>
<path id="path307" class="st12" d="M780.1,118.9c6.5,37.1,6,99.8,2.7,126.6"/>
<path id="path308" class="st12" d="M777.4,118.9c6.5,37.1,6,99.8,2.7,126.6"/>
<path id="path309" class="st12" d="M774.1,118.9c6.5,37.1,6,99.8,2.7,126.6"/>
<path id="path310" class="st12" d="M770.3,118.9c6,37.1,4.9,98.2,3.3,124.4"/>
<path id="path186" class="st13" d="M494.9,49.7l-75.6,16.5c0,0-141.7,0-144.1-2.4s-42.5-21.3-42.5-21.3S490.1,47.4,494.9,49.7
	L494.9,49.7z"/>
<path id="path211" class="st14" d="M480,42.9c-25.7-2.3-443.5-15-443.3,4.7c-26.5,69.9-23.6,221.6,7,278.5
	c0.1,17.5,417.7,7,443.3,4.7"/>
<path id="path187" class="st15" d="M499.6,323.8L424,307.2c0,0-141.7,0-144.1,2.4s-42.5,21.3-42.5,21.3S494.9,326.1,499.6,323.8
	L499.6,323.8z"/>
</svg>
