<?xml version="1.0" encoding="UTF-8"?>
<svg width="130px" height="106px" viewBox="0 0 130 106" version="1.1" xmlns="http://www.w3.org/2000/svg" xmlns:xlink="http://www.w3.org/1999/xlink">
    <!-- Generator: Sketch 52.6 (67491) - http://www.bohemiancoding.com/sketch -->
    <title>twitter</title>
    <desc>Created with Sketch.</desc>
    <g id="Page-1" stroke="none" stroke-width="1" fill="none" fill-rule="evenodd">
        <g id="twitter" fill="#000000">
            <path d="M116.636914,26.3341406 C116.719434,27.4889063 116.719434,28.6439258 116.719434,29.7986914 C116.719434,65.0205664 89.91125,105.604434 40.9136914,105.604434 C25.818457,105.604434 11.7957227,101.232422 0,93.6439258 C2.14474609,93.8912305 4.20671875,93.97375 6.43398437,93.97375 C18.8893555,93.97375 30.3552539,89.7670312 39.5113672,82.590625 C27.7981641,82.3430664 17.9821484,74.6717969 14.6001172,64.1133594 C16.25,64.3606641 17.8996289,64.5257031 19.6320312,64.5257031 C22.024082,64.5257031 24.4163867,64.195625 26.6433984,63.6184961 C14.435332,61.1436719 5.27896484,50.4204492 5.27896484,37.4699609 L5.27896484,37.1401367 C8.82578125,39.1198438 12.9504883,40.3571289 17.3219922,40.5219141 C10.1455859,35.7375586 5.44400391,27.5714258 5.44400391,18.332793 C5.44400391,13.3836523 6.76355469,8.84685547 9.07333984,4.88744141 C22.1888672,21.0549219 41.903418,31.6131055 64.0097656,32.768125 C63.5974219,30.788418 63.3498633,28.7264453 63.3498633,26.6642187 C63.3498633,11.9813281 75.2281055,0.0208203125 89.9932617,0.0208203125 C97.6645312,0.0208203125 104.593379,3.2378125 109.460254,8.43451172 C115.481641,7.27974609 121.255723,5.05248047 126.370156,2.00052734 C124.390195,8.18720703 120.183477,13.3839062 114.656953,16.6831641 C120.018691,16.1060352 125.215391,14.6209375 129.999492,12.5589648 C126.370664,17.8379297 121.833613,22.5395117 116.636914,26.3341406 Z" id="Path"></path>
        </g>
    </g>
</svg>