<?xml version="1.0" encoding="utf-8"?>
<!-- Generator: Adobe Illustrator 27.7.0, SVG Export Plug-In . SVG Version: 6.00 Build 0)  -->
<svg version="1.1" id="Ebene_1" xmlns="http://www.w3.org/2000/svg" xmlns:xlink="http://www.w3.org/1999/xlink" x="0px" y="0px"
	 viewBox="0 0 360.9 123.9" style="enable-background:new 0 0 360.9 123.9;" xml:space="preserve">
<style type="text/css">
	.st0{fill:#CC0000;}
	.st1{fill:#FFFFFF;}
</style>
<polygon class="st0" points="0,0 123.9,0 123.9,123.9 0,123.9 "/>
<path class="st1" d="M110.8,100c0,1.5-1.2,2.7-2.7,2.7h-45H37.8H16.2c-1.4,0-2.6-1.2-2.6-2.6c0-0.8,0.4-1.5,1-2l22.7-22.8
	c1.3-1.3,3.5-1.3,4.8,0l8.2,8.3l20.2-20.4c1.3-1.3,3.5-1.3,4.8,0l34.4,34.6c0.1,0.1,0.2,0.3,0.3,0.4
	C110.6,98.7,110.8,99.3,110.8,100L110.8,100z"/>
<g>
	<path d="M155.8,57.1h-15.9c-0.3,0-0.5-0.1-0.5-0.6V21.7c0-0.5,0.2-0.6,0.5-0.6h15.9c7.7,0,12.3,3.4,12.3,10.1v1.7
		c0,2.5-1.3,4.6-3.4,5.7c-0.5,0.2-0.5,0.5,0,0.7c2.1,1.1,3.4,3.3,3.4,5.7v1.6C168,52.7,163.7,57.1,155.8,57.1z M158.6,31.9
		c0-1.4-0.9-2.4-2.9-2.4h-6.2c-0.5,0-0.7,0.2-0.7,0.6v4.5c0,0.4,0.2,0.6,0.7,0.6h6.2c2,0,2.9-0.9,2.9-2.3V31.9z M158.6,44.8
		c0-1.3-1-2.3-2.9-2.3h-6.2c-0.5,0-0.7,0.2-0.7,0.6v5c0,0.4,0.2,0.6,0.7,0.6h6.2c1.6,0,2.9-1.1,2.9-2.3V44.8z"/>
	<path d="M196.2,57.1h-23.7c-0.3,0-0.5-0.1-0.5-0.6V21.7c0-0.5,0.2-0.6,0.5-0.6h23.7c0.2,0,0.6,0.1,0.6,0.6V29
		c0,0.4-0.2,0.5-0.6,0.5h-14c-0.5,0-0.7,0.2-0.7,0.6V34c0,0.4,0.2,0.6,0.7,0.6h11.5c0.3,0,0.6,0.1,0.6,0.5v7.3
		c0,0.4-0.3,0.5-0.6,0.5h-11.5c-0.5,0-0.7,0.2-0.7,0.6v4.4c0,0.4,0.2,0.6,0.7,0.6h14c0.3,0,0.6,0.1,0.6,0.5v7.3
		C196.7,57,196.5,57.1,196.2,57.1z"/>
	<path d="M229.9,57.1H221c-0.2,0-0.4-0.2-0.5-0.4l-5.2-13.2c-0.1-0.3-0.3-0.4-0.5-0.4h-3.9c-0.5,0-0.7,0.2-0.7,0.6v12.8
		c0,0.5-0.3,0.6-0.6,0.6h-8.4c-0.3,0-0.5-0.1-0.5-0.6V21.7c0-0.5,0.2-0.6,0.5-0.6h15.9c7.5,0,12.3,4.3,12.3,11.3v0.5
		c0,3.5-1.7,6.3-4.2,7.9c-0.5,0.3-0.5,0.7-0.3,1.3l5.6,14.3C230.6,56.7,230.5,57.1,229.9,57.1z M219.9,31.9c0-1.5-1-2.4-2.9-2.4
		h-6.2c-0.5,0-0.7,0.2-0.7,0.6v4.5c0,0.4,0.2,0.6,0.7,0.6h6.2c1.8,0,2.9-0.7,2.9-2.3V31.9z"/>
	<path d="M261.1,29.1l-7.1,3.2c-0.5,0.2-0.9-0.1-1.1-0.5c-1.1-2-2.4-3.2-4.1-3.2h-4c-1.9,0-3,1-3,2.4v16c0,1.4,1.3,2.3,3,2.3h4
		c1.8,0,2.8-0.9,2.8-2.3v-2.3c0-0.4-0.3-0.6-0.7-0.6h-4.3c-0.3,0-0.5-0.2-0.5-0.6v-6.1c0-0.5,0.2-0.6,0.5-0.6h13.9
		c0.4,0,0.5,0.1,0.5,0.6V47c0,6.7-4.4,10.7-12.3,10.7h-4c-7.9,0-12.4-4.1-12.4-10.7V31c0-6.4,4.7-10.7,12.4-10.7h4.5
		c3.9,0,6.8,1.1,9.1,3.5c1,1.1,2,2.5,2.8,4.2C261.4,28.4,261.5,28.9,261.1,29.1z"/>
	<path d="M163.6,74.9h-14c-0.5,0-0.7,0.2-0.7,0.6v3.9c0,0.4,0.2,0.6,0.7,0.6h11.5c0.3,0,0.6,0.1,0.6,0.5V88c0,0.4-0.3,0.5-0.6,0.5
		h-11.5c-0.5,0-0.7,0.2-0.7,0.6v12.8c0,0.5-0.3,0.6-0.6,0.6h-8.4c-0.3,0-0.5-0.1-0.5-0.6V67.1c0-0.5,0.2-0.6,0.5-0.6h23.7
		c0.2,0,0.6,0.1,0.6,0.6v7.3C164.1,74.8,163.9,74.9,163.6,74.9z"/>
	<path d="M197.1,102.5h-8.9c-0.2,0-0.4-0.2-0.5-0.4l-5.2-13.2c-0.1-0.3-0.3-0.4-0.5-0.4h-4c-0.5,0-0.7,0.2-0.7,0.6v12.8
		c0,0.5-0.3,0.6-0.6,0.6h-8.4c-0.3,0-0.5-0.1-0.5-0.6V67.1c0-0.5,0.2-0.6,0.5-0.6h15.9c7.5,0,12.3,4.3,12.3,11.3v0.5
		c0,3.5-1.7,6.3-4.2,7.9c-0.5,0.3-0.5,0.7-0.3,1.3l5.6,14.3C197.8,102.2,197.7,102.5,197.1,102.5z M187.1,77.3c0-1.5-1-2.4-2.9-2.4
		H178c-0.5,0-0.7,0.2-0.7,0.6V80c0,0.4,0.2,0.6,0.7,0.6h6.2c1.8,0,2.9-0.7,2.9-2.3L187.1,77.3L187.1,77.3z"/>
	<path d="M225,102.5h-23.7c-0.3,0-0.5-0.1-0.5-0.6V67.1c0-0.5,0.2-0.6,0.5-0.6H225c0.2,0,0.6,0.1,0.6,0.6v7.3c0,0.4-0.2,0.5-0.6,0.5
		h-14c-0.5,0-0.7,0.2-0.7,0.6v3.9c0,0.4,0.2,0.6,0.7,0.6h11.5c0.3,0,0.6,0.1,0.6,0.5V88c0,0.4-0.3,0.5-0.6,0.5H211
		c-0.5,0-0.7,0.2-0.7,0.6v4.4c0,0.4,0.2,0.6,0.7,0.6h14c0.3,0,0.6,0.1,0.6,0.5v7.3C225.6,102.4,225.4,102.5,225,102.5z"/>
	<path d="M245.5,103.3h-4c-7.4,0-12.3-4.3-12.3-10.7V67.1c0-0.5,0.2-0.6,0.5-0.6h8.3c0.2,0,0.5,0.1,0.5,0.6v25.4
		c0,1.4,0.9,2.3,3,2.3h4c2,0,2.8-0.9,2.8-2.3V67.1c0-0.5,0.2-0.6,0.5-0.6h8.4c0.3,0,0.5,0.1,0.5,0.6v25.4
		C257.7,99,252.8,103.3,245.5,103.3z"/>
	<path d="M289.2,102.5h-7.1c-0.3,0-0.5-0.2-0.6-0.5L273,86.3c-0.7-1.3-1.2-2.6-1.2-2.6h-0.2c0,0,0.3,4.5,0.3,9.2v9.1
		c0,0.5-0.2,0.6-0.6,0.6h-8.2c-0.3,0-0.5-0.1-0.5-0.6V67.1c0-0.5,0.2-0.6,0.5-0.6h7.2c0.3,0,0.6,0.2,0.7,0.5l8.4,16.1
		c0.8,1.5,1.3,2.7,1.3,2.7h0.2c0,0-0.3-4.4-0.3-9.5v-9.2c0-0.5,0.2-0.6,0.5-0.6h8c0.2,0,0.6,0.1,0.6,0.6v34.8
		C289.8,102.4,289.5,102.5,289.2,102.5z"/>
	<path d="M311.1,102.5h-15.9c-0.3,0-0.5-0.1-0.5-0.6V67.1c0-0.5,0.2-0.6,0.5-0.6h15.9c7.5,0,12.3,4.3,12.3,11.3v13.5
		C323.4,98.2,318.6,102.5,311.1,102.5z M314,77.3c0-1.1-1.3-2.4-2.8-2.4H305c-0.5,0-0.7,0.2-0.7,0.6v17.9c0,0.4,0.2,0.6,0.7,0.6h6.2
		c1.6,0,2.8-1.1,2.8-2.3V77.3z"/>
	<path d="M351.8,102.5h-23.7c-0.3,0-0.5-0.1-0.5-0.6V67.1c0-0.5,0.2-0.6,0.5-0.6h23.7c0.2,0,0.6,0.1,0.6,0.6v7.3
		c0,0.4-0.2,0.5-0.6,0.5h-14c-0.5,0-0.7,0.2-0.7,0.6v3.9c0,0.4,0.2,0.6,0.7,0.6h11.5c0.3,0,0.6,0.1,0.6,0.5V88
		c0,0.4-0.3,0.5-0.6,0.5h-11.5c-0.5,0-0.7,0.2-0.7,0.6v4.4c0,0.4,0.2,0.6,0.7,0.6h14c0.3,0,0.6,0.1,0.6,0.5v7.3
		C352.4,102.4,352.2,102.5,351.8,102.5z"/>
</g>
</svg>
