<?xml version="1.0" encoding="utf-8"?>
<!-- Generator: Adobe Illustrator 27.7.0, SVG Export Plug-In . SVG Version: 6.00 Build 0)  -->
<svg version="1.1" id="Ebene_1" xmlns="http://www.w3.org/2000/svg" xmlns:xlink="http://www.w3.org/1999/xlink" x="0px" y="0px"
	 viewBox="10.9 77.2 134.3 45.5" style="enable-background:new 0 0 360.9 123.9;" xml:space="preserve">
<style type="text/css">
	.st0{fill:#CC0000;}
	.st1{fill:#FFFFFF;}
</style>
<polygon class="st0" points="0,0 123.9,0 123.9,123.9 0,123.9 "/>
<path class="st1" d="M110.8,100c0,1.5-1.2,2.7-2.7,2.7h-45H37.8H16.2c-1.4,0-2.6-1.2-2.6-2.6c0-0.8,0.4-1.5,1-2l22.7-22.8
	c1.3-1.3,3.5-1.3,4.8,0l8.2,8.3l20.2-20.4c1.3-1.3,3.5-1.3,4.8,0l34.4,34.6c0.1,0.1,0.2,0.3,0.3,0.4
	C110.6,98.7,110.8,99.3,110.8,100L110.8,100z"/>
<g>
</g>
</svg>
