<?xml version="1.0" standalone="no"?>
<!DOCTYPE svg PUBLIC "-//W3C//DTD SVG 20010904//EN"
 "http://www.w3.org/TR/2001/REC-SVG-20010904/DTD/svg10.dtd">
<svg version="1.0" xmlns="http://www.w3.org/2000/svg"
 width="700.000000pt" height="700.000000pt" viewBox="0 0 700.000000 700.000000"
 preserveAspectRatio="xMidYMid meet">
<metadata>
Created by potrace 1.14, written by Peter Selinger 2001-2017
</metadata>
<g transform="translate(0.000000,700.000000) scale(0.100000,-0.100000)"
fill="#000000" stroke="none">
<path d="M2630 6595 l0 -404 -135 1 c-74 1 -138 -1 -141 -5 -3 -3 -6 -202 -6
-441 l0 -436 -66 -1 c-37 0 -105 -1 -152 -2 l-85 -2 0 -290 0 -290 130 0 130
-1 1 -45 c1 -41 -7 -125 -22 -224 -26 -182 -139 -689 -172 -776 l-10 -26 -319
1 c-175 1 -325 0 -333 -2 -14 -3 -16 -63 -15 -520 l0 -517 138 0 138 0 -6 -25
c-7 -30 -238 -500 -287 -585 -19 -33 -49 -86 -67 -118 -32 -59 -201 -346 -233
-395 -10 -15 -21 -34 -25 -42 -30 -57 -419 -628 -475 -695 -5 -5 -30 -39 -56
-75 -25 -36 -49 -67 -52 -70 -3 -3 -30 -36 -60 -75 -76 -97 -68 -86 -182 -226
-104 -127 -217 -257 -252 -291 -19 -18 -6 -18 482 -18 l501 0 158 193 c87 107
174 213 193 237 19 24 58 71 85 103 28 33 59 71 70 86 11 15 77 98 147 184
l128 156 117 3 c65 2 154 2 199 0 l80 -3 13 -74 c16 -97 49 -285 76 -430 3
-16 12 -68 21 -115 26 -141 32 -174 37 -195 8 -32 21 -129 19 -138 -3 -9 955
-9 961 1 3 4 8 23 11 42 3 19 10 60 16 90 6 30 13 69 16 85 3 24 42 236 59
330 3 11 14 74 26 140 12 66 23 127 24 135 2 8 6 39 10 68 4 29 12 55 17 58 5
3 93 6 196 6 l186 -1 30 -33 c17 -18 58 -67 91 -108 33 -41 68 -84 77 -95 9
-11 91 -112 183 -225 91 -113 174 -214 183 -225 10 -11 64 -77 121 -148 l103
-127 500 0 500 0 -73 83 c-41 45 -76 84 -79 87 -9 9 -144 171 -211 255 -272
335 -656 887 -854 1229 -151 261 -217 379 -307 554 -80 157 -181 392 -172 401
3 3 63 6 132 6 l127 0 1 518 c1 368 -2 517 -10 518 -6 1 -157 2 -336 3 l-325
1 -32 120 c-40 146 -32 110 -92 405 -28 135 -53 270 -56 300 -4 30 -8 57 -10
60 -1 3 -6 44 -10 91 -5 67 -3 87 7 91 7 2 68 3 136 2 l122 -2 0 293 0 294
-72 0 c-40 0 -109 0 -153 0 l-80 1 0 440 1 440 -51 1 c-27 1 -91 1 -142 0
l-91 -1 0 383 c0 210 -1 392 -1 405 l-1 22 -195 0 -195 0 0 -405z"/>
</g>
</svg>
