<?xml version="1.0" standalone="no"?>
<!DOCTYPE svg PUBLIC "-//W3C//DTD SVG 20010904//EN"
 "http://www.w3.org/TR/2001/REC-SVG-20010904/DTD/svg10.dtd">
<svg version="1.0" xmlns="http://www.w3.org/2000/svg"
 width="630.000000pt" height="630.000000pt" viewBox="0 0 630.000000 630.000000"
 preserveAspectRatio="xMidYMid meet">
<metadata>
Created by potrace 1.14, written by Peter Selinger 2001-2017
</metadata>
<g transform="translate(0.000000,630.000000) scale(0.100000,-0.100000)"
fill="#000000" stroke="none">
<path d="M3070 5897 c-41 -128 -114 -353 -163 -502 -49 -148 -90 -277 -92
-285 -3 -14 -109 -339 -229 -705 -29 -88 -81 -248 -116 -357 l-63 -196 -1194
0 c-657 0 -1196 -2 -1199 -4 -2 -3 22 -23 53 -45 52 -36 630 -455 693 -503 14
-10 167 -121 340 -247 173 -125 320 -231 325 -236 10 -8 98 -72 377 -273 131
-95 146 -108 139 -127 -5 -12 -52 -157 -106 -322 -53 -165 -113 -347 -132
-405 -19 -58 -36 -109 -37 -115 -2 -10 -129 -401 -221 -680 -62 -189 -222
-686 -230 -714 -4 -13 -3 -22 2 -20 5 2 72 50 149 106 619 456 1781 1293 1789
1289 10 -4 198 -138 427 -305 42 -31 111 -81 153 -111 42 -30 85 -62 95 -70
25 -19 25 -19 510 -370 223 -161 428 -310 455 -330 230 -169 288 -210 292
-206 2 2 -19 75 -47 163 -29 87 -61 187 -72 223 -11 36 -24 74 -28 85 -5 11
-33 97 -63 190 -68 211 -259 800 -297 915 -49 149 -222 685 -224 692 -1 5
1184 873 1430 1047 84 60 379 275 384 281 3 3 31 23 63 44 32 21 55 41 53 44
-3 2 -542 4 -1198 4 l-1194 0 -51 157 c-28 86 -101 311 -163 501 -61 190 -120
370 -130 400 -11 30 -48 145 -84 255 -35 110 -116 360 -180 556 -64 196 -116
360 -116 365 0 6 -6 18 -12 27 -11 13 -25 -20 -88 -216z"/>
</g>
</svg>
