{
	"asset":{
		"generator":"Khronos glTF Blender I/O v4.0.44",
		"version":"2.0"
	},
	"scene":0,
	"scenes":[
		{
			"name":"Scene",
			"nodes":[
				0,
				1,
				2,
				3,
				4,
				5,
				7,
				8
			]
		}
	],
	"nodes":[
		{
			"mesh":0,
			"name":"Cube",
			"scale":[
				0.5160824656486511,
				1.2078781127929688,
				1
			],
			"translation":[
				0,
				1.3737832307815552,
				0
			]
		},
		{
			"mesh":1,
			"name":"ring",
			"scale":[
				0.09153137356042862,
				1.2078781127929688,
				1
			],
			"translation":[
				0,
				1.3737832307815552,
				0
			]
		},
		{
			"mesh":2,
			"name":"feet",
			"scale":[
				0.060227178037166595,
				0.12031257897615433,
				0.09408855438232422
			],
			"translation":[
				0.2943926453590393,
				0.0338360071182251,
				0.594234824180603
			]
		},
		{
			"mesh":3,
			"name":"wheels",
			"rotation":[
				-0.5,
				0.5,
				-0.5,
				0.5000000596046448
			],
			"scale":[
				0.1793372929096222,
				0.09319925308227539,
				0.1793372929096222
			],
			"translation":[
				-0.45074495673179626,
				0.08477520942687988,
				-0.5754292011260986
			]
		},
		{
			"mesh":4,
			"name":"handle",
			"scale":[
				0.13056470453739166,
				0.13056470453739166,
				0.4638427495956421
			],
			"translation":[
				-0.20501025021076202,
				4.408827781677246,
				0
			]
		},
		{
			"mesh":5,
			"name":"Cylinder.001",
			"scale":[
				0.05697602778673172,
				0.1468704342842102,
				0.05697602778673172
			],
			"translation":[
				-0.20501025021076202,
				4.056041240692139,
				0.3706197142601013
			]
		},
		{
			"mesh":6,
			"name":"Cylinder.004"
		},
		{
			"children":[
				6
			],
			"mesh":7,
			"name":"Cylinder.002",
			"scale":[
				0.05697602778673172,
				0.1468704342842102,
				0.05697602778673172
			],
			"translation":[
				-0.20501025021076202,
				4.056041240692139,
				0.3706197142601013
			]
		},
		{
			"mesh":8,
			"name":"Cylinder.003",
			"scale":[
				0.05697602778673172,
				0.1468704342842102,
				0.05697602778673172
			],
			"translation":[
				-0.20501025021076202,
				4.056041240692139,
				0.3706197142601013
			]
		}
	],
	"animations":[
		{
			"channels":[
				{
					"sampler":0,
					"target":{
						"node":4,
						"path":"translation"
					}
				}
			],
			"name":"handleAction",
			"samplers":[
				{
					"input":44,
					"interpolation":"LINEAR",
					"output":45
				}
			]
		},
		{
			"channels":[
				{
					"sampler":0,
					"target":{
						"node":5,
						"path":"translation"
					}
				}
			],
			"name":"Cylinder.001Action",
			"samplers":[
				{
					"input":44,
					"interpolation":"LINEAR",
					"output":46
				}
			]
		},
		{
			"channels":[
				{
					"sampler":0,
					"target":{
						"node":7,
						"path":"translation"
					}
				}
			],
			"name":"Cylinder.002Action",
			"samplers":[
				{
					"input":44,
					"interpolation":"LINEAR",
					"output":47
				}
			]
		},
		{
			"channels":[
				{
					"sampler":0,
					"target":{
						"node":8,
						"path":"translation"
					}
				}
			],
			"name":"Cylinder.003Action",
			"samplers":[
				{
					"input":44,
					"interpolation":"LINEAR",
					"output":48
				}
			]
		}
	],
	"materials":[
		{
			"doubleSided":true,
			"name":"bright orange",
			"pbrMetallicRoughness":{
				"baseColorFactor":[
					0.6039296388626099,
					0.09083769470453262,
					0,
					1
				],
				"metallicFactor":0,
				"roughnessFactor":0.5
			}
		},
		{
			"doubleSided":true,
			"name":"dark gray",
			"pbrMetallicRoughness":{
				"baseColorFactor":[
					0.023157240822911263,
					0.028424788266420364,
					0.03310238569974899,
					1
				],
				"metallicFactor":0,
				"roughnessFactor":0.5
			}
		},
		{
			"doubleSided":true,
			"name":"metallic",
			"pbrMetallicRoughness":{
				"baseColorFactor":[
					0.8001648187637329,
					0.7680270671844482,
					0.7279883623123169,
					1
				],
				"roughnessFactor":0.4763779640197754
			}
		}
	],
	"meshes":[
		{
			"name":"Mesh",
			"primitives":[
				{
					"attributes":{
						"POSITION":0,
						"NORMAL":1,
						"TEXCOORD_0":2
					},
					"indices":3,
					"material":0
				}
			]
		},
		{
			"name":"Mesh",
			"primitives":[
				{
					"attributes":{
						"POSITION":4,
						"NORMAL":5,
						"TEXCOORD_0":6
					},
					"indices":7,
					"material":1
				}
			]
		},
		{
			"name":"Cube.003",
			"primitives":[
				{
					"attributes":{
						"POSITION":8,
						"NORMAL":9,
						"TEXCOORD_0":10
					},
					"indices":11,
					"material":1
				}
			]
		},
		{
			"name":"Cylinder.001",
			"primitives":[
				{
					"attributes":{
						"POSITION":12,
						"NORMAL":13,
						"TEXCOORD_0":14
					},
					"indices":15,
					"material":1
				},
				{
					"attributes":{
						"POSITION":16,
						"NORMAL":17,
						"TEXCOORD_0":18
					},
					"indices":19,
					"material":0
				}
			]
		},
		{
			"name":"Mesh",
			"primitives":[
				{
					"attributes":{
						"POSITION":20,
						"NORMAL":21,
						"TEXCOORD_0":22
					},
					"indices":23,
					"material":0
				},
				{
					"attributes":{
						"POSITION":24,
						"NORMAL":25,
						"TEXCOORD_0":26
					},
					"indices":27,
					"material":1
				}
			]
		},
		{
			"name":"Cylinder",
			"primitives":[
				{
					"attributes":{
						"POSITION":28,
						"NORMAL":29,
						"TEXCOORD_0":30
					},
					"indices":31,
					"material":2
				}
			]
		},
		{
			"name":"Cylinder.004",
			"primitives":[
				{
					"attributes":{
						"POSITION":32,
						"NORMAL":33,
						"TEXCOORD_0":34
					},
					"indices":35,
					"material":2
				}
			]
		},
		{
			"name":"Cylinder.003",
			"primitives":[
				{
					"attributes":{
						"POSITION":36,
						"NORMAL":37,
						"TEXCOORD_0":38
					},
					"indices":39,
					"material":2
				}
			]
		},
		{
			"name":"Cylinder.002",
			"primitives":[
				{
					"attributes":{
						"POSITION":40,
						"NORMAL":41,
						"TEXCOORD_0":42
					},
					"indices":43,
					"material":2
				}
			]
		}
	],
	"accessors":[
		{
			"bufferView":0,
			"componentType":5126,
			"count":12208,
			"max":[
				0.9961072206497192,
				1.1995476484298706,
				1.0000001192092896
			],
			"min":[
				-0.9961072206497192,
				-1.091459035873413,
				-1.0000001192092896
			],
			"type":"VEC3"
		},
		{
			"bufferView":1,
			"componentType":5126,
			"count":12208,
			"type":"VEC3"
		},
		{
			"bufferView":2,
			"componentType":5126,
			"count":12208,
			"type":"VEC2"
		},
		{
			"bufferView":3,
			"componentType":5123,
			"count":18432,
			"type":"SCALAR"
		},
		{
			"bufferView":4,
			"componentType":5126,
			"count":5184,
			"max":[
				0.958333432674408,
				1.239547848701477,
				1.040000081062317
			],
			"min":[
				-0.958333432674408,
				-1.1314589977264404,
				-1.040000081062317
			],
			"type":"VEC3"
		},
		{
			"bufferView":5,
			"componentType":5126,
			"count":5184,
			"type":"VEC3"
		},
		{
			"bufferView":6,
			"componentType":5126,
			"count":5184,
			"type":"VEC2"
		},
		{
			"bufferView":7,
			"componentType":5123,
			"count":10368,
			"type":"SCALAR"
		},
		{
			"bufferView":8,
			"componentType":5126,
			"count":48,
			"max":[
				1,
				1,
				1
			],
			"min":[
				-1,
				-1,
				-13.420000076293945
			],
			"type":"VEC3"
		},
		{
			"bufferView":9,
			"componentType":5126,
			"count":48,
			"type":"VEC3"
		},
		{
			"bufferView":10,
			"componentType":5126,
			"count":48,
			"type":"VEC2"
		},
		{
			"bufferView":11,
			"componentType":5123,
			"count":72,
			"type":"SCALAR"
		},
		{
			"bufferView":12,
			"componentType":5126,
			"count":2920,
			"max":[
				1,
				1,
				1
			],
			"min":[
				-1,
				-13.5,
				-1
			],
			"type":"VEC3"
		},
		{
			"bufferView":13,
			"componentType":5126,
			"count":2920,
			"type":"VEC3"
		},
		{
			"bufferView":14,
			"componentType":5126,
			"count":2920,
			"type":"VEC2"
		},
		{
			"bufferView":15,
			"componentType":5123,
			"count":7272,
			"type":"SCALAR"
		},
		{
			"bufferView":16,
			"componentType":5126,
			"count":512,
			"max":[
				0.8876285552978516,
				0.6662648320198059,
				0.8876285552978516
			],
			"min":[
				-0.8876285552978516,
				-13.166264533996582,
				-0.8876285552978516
			],
			"type":"VEC3"
		},
		{
			"bufferView":17,
			"componentType":5126,
			"count":512,
			"type":"VEC3"
		},
		{
			"bufferView":18,
			"componentType":5126,
			"count":512,
			"type":"VEC2"
		},
		{
			"bufferView":19,
			"componentType":5123,
			"count":1152,
			"type":"SCALAR"
		},
		{
			"bufferView":20,
			"componentType":5126,
			"count":5615,
			"max":[
				0.9819126725196838,
				1.0287045240402222,
				1.0000001192092896
			],
			"min":[
				-0.9819126725196838,
				-1.9606989622116089,
				-1.0000001192092896
			],
			"type":"VEC3"
		},
		{
			"bufferView":21,
			"componentType":5126,
			"count":5615,
			"type":"VEC3"
		},
		{
			"bufferView":22,
			"componentType":5126,
			"count":5615,
			"type":"VEC2"
		},
		{
			"bufferView":23,
			"componentType":5123,
			"count":11136,
			"type":"SCALAR"
		},
		{
			"bufferView":24,
			"componentType":5126,
			"count":512,
			"max":[
				0.4444444477558136,
				1.165050745010376,
				0.3447825312614441
			],
			"min":[
				-0.444444477558136,
				1.0206671953201294,
				-0.3447825610637665
			],
			"type":"VEC3"
		},
		{
			"bufferView":25,
			"componentType":5126,
			"count":512,
			"type":"VEC3"
		},
		{
			"bufferView":26,
			"componentType":5126,
			"count":512,
			"type":"VEC2"
		},
		{
			"bufferView":27,
			"componentType":5123,
			"count":768,
			"type":"SCALAR"
		},
		{
			"bufferView":28,
			"componentType":5126,
			"count":452,
			"max":[
				1.1680341958999634,
				-4.56958532333374,
				1.168033480644226
			],
			"min":[
				-1.1680339574813843,
				-8.651566505432129,
				-14.177705764770508
			],
			"type":"VEC3"
		},
		{
			"bufferView":29,
			"componentType":5126,
			"count":452,
			"type":"VEC3"
		},
		{
			"bufferView":30,
			"componentType":5126,
			"count":452,
			"type":"VEC2"
		},
		{
			"bufferView":31,
			"componentType":5123,
			"count":948,
			"type":"SCALAR"
		},
		{
			"bufferView":32,
			"componentType":5126,
			"count":132,
			"max":[
				1.083926796913147,
				-2.0832407474517822,
				1.083926796913147
			],
			"min":[
				-1.083926796913147,
				-2.0832417011260986,
				-14.093599319458008
			],
			"type":"VEC3"
		},
		{
			"bufferView":33,
			"componentType":5126,
			"count":132,
			"type":"VEC3"
		},
		{
			"bufferView":34,
			"componentType":5126,
			"count":132,
			"type":"VEC2"
		},
		{
			"bufferView":35,
			"componentType":5123,
			"count":384,
			"type":"SCALAR"
		},
		{
			"bufferView":36,
			"componentType":5126,
			"count":256,
			"max":[
				1.0839275121688843,
				-2.0832407474517822,
				1.083926796913147
			],
			"min":[
				-1.083926796913147,
				-4.569586277008057,
				-14.093599319458008
			],
			"type":"VEC3"
		},
		{
			"bufferView":37,
			"componentType":5126,
			"count":256,
			"type":"VEC3"
		},
		{
			"bufferView":38,
			"componentType":5126,
			"count":256,
			"type":"VEC2"
		},
		{
			"bufferView":39,
			"componentType":5123,
			"count":384,
			"type":"SCALAR"
		},
		{
			"bufferView":40,
			"componentType":5126,
			"count":320,
			"max":[
				1,
				1,
				1
			],
			"min":[
				-1,
				-2.0832417011260986,
				-14.009672164916992
			],
			"type":"VEC3"
		},
		{
			"bufferView":41,
			"componentType":5126,
			"count":320,
			"type":"VEC3"
		},
		{
			"bufferView":42,
			"componentType":5126,
			"count":320,
			"type":"VEC2"
		},
		{
			"bufferView":43,
			"componentType":5123,
			"count":564,
			"type":"SCALAR"
		},
		{
			"bufferView":44,
			"componentType":5126,
			"count":120,
			"max":[
				5
			],
			"min":[
				0.041666666666666664
			],
			"type":"SCALAR"
		},
		{
			"bufferView":45,
			"componentType":5126,
			"count":120,
			"type":"VEC3"
		},
		{
			"bufferView":46,
			"componentType":5126,
			"count":120,
			"type":"VEC3"
		},
		{
			"bufferView":47,
			"componentType":5126,
			"count":120,
			"type":"VEC3"
		},
		{
			"bufferView":48,
			"componentType":5126,
			"count":120,
			"type":"VEC3"
		}
	],
	"bufferViews":[
		{
			"buffer":0,
			"byteLength":146496,
			"byteOffset":0,
			"target":34962
		},
		{
			"buffer":0,
			"byteLength":146496,
			"byteOffset":146496,
			"target":34962
		},
		{
			"buffer":0,
			"byteLength":97664,
			"byteOffset":292992,
			"target":34962
		},
		{
			"buffer":0,
			"byteLength":36864,
			"byteOffset":390656,
			"target":34963
		},
		{
			"buffer":0,
			"byteLength":62208,
			"byteOffset":427520,
			"target":34962
		},
		{
			"buffer":0,
			"byteLength":62208,
			"byteOffset":489728,
			"target":34962
		},
		{
			"buffer":0,
			"byteLength":41472,
			"byteOffset":551936,
			"target":34962
		},
		{
			"buffer":0,
			"byteLength":20736,
			"byteOffset":593408,
			"target":34963
		},
		{
			"buffer":0,
			"byteLength":576,
			"byteOffset":614144,
			"target":34962
		},
		{
			"buffer":0,
			"byteLength":576,
			"byteOffset":614720,
			"target":34962
		},
		{
			"buffer":0,
			"byteLength":384,
			"byteOffset":615296,
			"target":34962
		},
		{
			"buffer":0,
			"byteLength":144,
			"byteOffset":615680,
			"target":34963
		},
		{
			"buffer":0,
			"byteLength":35040,
			"byteOffset":615824,
			"target":34962
		},
		{
			"buffer":0,
			"byteLength":35040,
			"byteOffset":650864,
			"target":34962
		},
		{
			"buffer":0,
			"byteLength":23360,
			"byteOffset":685904,
			"target":34962
		},
		{
			"buffer":0,
			"byteLength":14544,
			"byteOffset":709264,
			"target":34963
		},
		{
			"buffer":0,
			"byteLength":6144,
			"byteOffset":723808,
			"target":34962
		},
		{
			"buffer":0,
			"byteLength":6144,
			"byteOffset":729952,
			"target":34962
		},
		{
			"buffer":0,
			"byteLength":4096,
			"byteOffset":736096,
			"target":34962
		},
		{
			"buffer":0,
			"byteLength":2304,
			"byteOffset":740192,
			"target":34963
		},
		{
			"buffer":0,
			"byteLength":67380,
			"byteOffset":742496,
			"target":34962
		},
		{
			"buffer":0,
			"byteLength":67380,
			"byteOffset":809876,
			"target":34962
		},
		{
			"buffer":0,
			"byteLength":44920,
			"byteOffset":877256,
			"target":34962
		},
		{
			"buffer":0,
			"byteLength":22272,
			"byteOffset":922176,
			"target":34963
		},
		{
			"buffer":0,
			"byteLength":6144,
			"byteOffset":944448,
			"target":34962
		},
		{
			"buffer":0,
			"byteLength":6144,
			"byteOffset":950592,
			"target":34962
		},
		{
			"buffer":0,
			"byteLength":4096,
			"byteOffset":956736,
			"target":34962
		},
		{
			"buffer":0,
			"byteLength":1536,
			"byteOffset":960832,
			"target":34963
		},
		{
			"buffer":0,
			"byteLength":5424,
			"byteOffset":962368,
			"target":34962
		},
		{
			"buffer":0,
			"byteLength":5424,
			"byteOffset":967792,
			"target":34962
		},
		{
			"buffer":0,
			"byteLength":3616,
			"byteOffset":973216,
			"target":34962
		},
		{
			"buffer":0,
			"byteLength":1896,
			"byteOffset":976832,
			"target":34963
		},
		{
			"buffer":0,
			"byteLength":1584,
			"byteOffset":978728,
			"target":34962
		},
		{
			"buffer":0,
			"byteLength":1584,
			"byteOffset":980312,
			"target":34962
		},
		{
			"buffer":0,
			"byteLength":1056,
			"byteOffset":981896,
			"target":34962
		},
		{
			"buffer":0,
			"byteLength":768,
			"byteOffset":982952,
			"target":34963
		},
		{
			"buffer":0,
			"byteLength":3072,
			"byteOffset":983720,
			"target":34962
		},
		{
			"buffer":0,
			"byteLength":3072,
			"byteOffset":986792,
			"target":34962
		},
		{
			"buffer":0,
			"byteLength":2048,
			"byteOffset":989864,
			"target":34962
		},
		{
			"buffer":0,
			"byteLength":768,
			"byteOffset":991912,
			"target":34963
		},
		{
			"buffer":0,
			"byteLength":3840,
			"byteOffset":992680,
			"target":34962
		},
		{
			"buffer":0,
			"byteLength":3840,
			"byteOffset":996520,
			"target":34962
		},
		{
			"buffer":0,
			"byteLength":2560,
			"byteOffset":1000360,
			"target":34962
		},
		{
			"buffer":0,
			"byteLength":1128,
			"byteOffset":1002920,
			"target":34963
		},
		{
			"buffer":0,
			"byteLength":480,
			"byteOffset":1004048
		},
		{
			"buffer":0,
			"byteLength":1440,
			"byteOffset":1004528
		},
		{
			"buffer":0,
			"byteLength":1440,
			"byteOffset":1005968
		},
		{
			"buffer":0,
			"byteLength":1440,
			"byteOffset":1007408
		},
		{
			"buffer":0,
			"byteLength":1440,
			"byteOffset":1008848
		}
	],
	"buffers":[
		{
			"byteLength":1010288,
			"uri":"suitcase.bin"
		}
	]
}
