<?xml version="1.0" standalone="no"?>
<!DOCTYPE svg PUBLIC "-//W3C//DTD SVG 20010904//EN"
 "http://www.w3.org/TR/2001/REC-SVG-20010904/DTD/svg10.dtd">
<svg version="1.0" xmlns="http://www.w3.org/2000/svg"
 width="1024.000000pt" height="1024.000000pt" viewBox="0 0 1024.000000 1024.000000"
 preserveAspectRatio="xMidYMid meet">
<metadata>
Created by potrace 1.14, written by Peter Selinger 2001-2017
</metadata>
<g transform="translate(0.000000,1024.000000) scale(0.100000,-0.100000)"
fill="#000000" stroke="none">
<path d="M4949 10203 c-7 -16 -16 -37 -20 -48 -5 -11 -11 -29 -14 -40 -2 -11
-11 -45 -20 -75 -8 -30 -17 -68 -20 -85 -3 -16 -10 -52 -15 -80 -24 -122 -33
-341 -17 -405 19 -76 30 -106 53 -137 l24 -31 -38 -15 c-85 -34 -159 -73 -188
-100 -40 -36 -81 -126 -89 -197 -3 -30 -8 -62 -10 -70 -7 -25 -23 -166 -31
-270 -3 -36 -7 -211 -9 -389 l-5 -324 -30 -19 c-30 -18 -50 -17 -50 2 0 15
-99 282 -116 312 -8 15 -14 29 -12 30 3 4 -51 133 -97 232 -19 42 -35 79 -35
82 0 15 -126 255 -162 309 -47 70 -117 129 -196 166 -53 25 -65 27 -172 24
-232 -7 -309 -74 -414 -365 -19 -52 -50 -138 -69 -190 -53 -145 -93 -270 -138
-432 -21 -73 -39 -101 -39 -60 0 10 -18 88 -40 173 -22 85 -42 163 -45 173
-39 157 -136 353 -209 419 -19 17 -19 18 0 32 10 8 22 15 26 15 4 0 19 17 32
39 29 46 45 120 39 187 -5 50 -40 221 -49 235 -4 8 -17 142 -15 167 1 6 2 18
2 25 3 33 -28 127 -42 127 -14 0 -111 -115 -163 -193 -151 -227 -214 -435
-163 -537 l17 -33 -44 -39 c-25 -21 -54 -53 -65 -72 -20 -32 -44 -121 -44
-161 0 -23 13 -150 19 -180 2 -10 6 -37 9 -60 9 -63 16 -117 21 -150 22 -136
8 -174 -74 -204 -31 -11 -70 -23 -87 -26 -30 -6 -146 -8 -150 -3 -2 2 -6 32
-9 68 -4 36 -9 74 -12 85 -2 11 -6 38 -9 60 -2 22 -6 51 -9 65 -3 14 -7 49
-10 78 -19 180 -99 322 -211 378 -117 57 -262 35 -332 -51 -31 -37 -73 -143
-79 -198 -13 -126 3 -496 31 -707 3 -19 7 -55 10 -80 3 -25 9 -67 15 -95 5
-27 11 -63 14 -80 4 -28 42 -212 50 -245 2 -8 9 -35 16 -60 7 -25 13 -49 15
-55 1 -5 4 -17 8 -25 3 -8 20 -60 38 -115 18 -55 36 -104 41 -109 4 -6 8 -13
8 -16 0 -4 -39 -38 -87 -76 -125 -99 -381 -357 -417 -421 -5 -10 -17 -25 -25
-35 -9 -9 -32 -41 -51 -70 l-35 -54 -58 -2 c-32 -1 -62 -4 -67 -7 -16 -10 -22
15 -25 98 -3 86 -4 94 -35 218 -11 42 -22 118 -24 170 -5 98 -11 132 -31 161
-11 16 -16 13 -56 -29 -24 -26 -61 -69 -81 -97 -21 -28 -41 -55 -45 -61 -22
-27 -122 -213 -130 -240 -1 -5 -11 -40 -22 -77 -24 -84 -22 -169 7 -219 l20
-36 -61 -39 c-33 -21 -79 -57 -102 -80 -42 -41 -112 -136 -106 -143 1 -2 -2
-7 -8 -10 -6 -4 -12 -16 -14 -26 -1 -11 -6 -25 -10 -32 -17 -28 -8 -150 18
-243 14 -52 28 -102 30 -110 2 -8 4 -15 5 -15 1 0 4 -11 7 -25 6 -34 9 -42 17
-62 4 -9 9 -22 10 -30 6 -27 18 -74 23 -88 3 -8 8 -24 10 -35 2 -11 6 -27 10
-35 3 -8 8 -24 10 -35 6 -27 9 -37 16 -55 3 -8 15 -49 26 -90 12 -41 26 -91
32 -110 6 -19 12 -42 13 -50 2 -8 6 -22 9 -30 5 -14 18 -69 19 -80 0 -3 6 -21
13 -40 7 -19 17 -48 21 -65 10 -40 9 -38 39 -140 15 -49 29 -98 31 -108 1 -10
8 -32 13 -50 6 -18 20 -62 31 -98 11 -36 32 -81 46 -100 43 -58 113 -127 144
-141 17 -7 31 -17 32 -23 5 -35 3 -695 -3 -695 -7 0 -6 -13 5 -90 3 -19 -2
-64 -11 -99 -11 -46 -14 -93 -10 -175 5 -105 7 -124 23 -186 4 -14 8 -89 9
-168 2 -79 6 -160 10 -180 4 -20 9 -50 11 -67 4 -36 9 -59 38 -175 2 -8 12
-35 21 -60 9 -25 20 -57 25 -72 13 -41 135 -283 150 -298 3 -3 18 -25 34 -49
16 -25 33 -50 38 -55 4 -6 22 -29 39 -51 70 -93 99 -126 209 -236 143 -144
298 -270 483 -392 78 -51 149 -97 157 -100 8 -4 38 -21 65 -38 95 -57 430
-217 570 -272 132 -52 332 -124 365 -132 8 -2 53 -15 100 -29 154 -48 300 -86
300 -80 0 3 9 0 21 -6 11 -7 33 -13 47 -15 15 -3 36 -6 47 -9 140 -30 230 -48
262 -52 21 -2 46 -7 55 -10 20 -6 40 -9 113 -19 28 -4 59 -9 70 -10 233 -33
358 -47 585 -62 140 -9 778 -10 910 0 168 12 243 18 280 23 19 3 55 7 80 10
94 9 289 35 360 49 10 2 40 7 67 11 26 3 57 9 68 11 51 12 112 25 130 28 71
12 281 62 353 84 18 5 33 9 35 9 1 -1 29 7 62 17 33 10 67 20 76 21 19 4 284
93 319 107 14 6 27 11 30 12 3 1 14 5 25 10 11 4 47 18 80 31 99 38 161 66
353 156 37 17 70 37 74 42 4 6 8 8 8 4 0 -8 177 91 280 156 35 23 72 46 82 51
22 13 220 156 234 169 6 6 28 25 49 41 52 41 177 158 241 225 88 94 133 145
134 151 0 3 12 19 26 35 35 39 134 189 134 203 0 6 4 11 8 11 8 0 56 91 106
200 23 51 76 210 69 210 -3 0 -1 6 5 13 5 6 13 35 17 62 5 28 10 57 11 65 3
14 6 40 19 135 13 98 16 136 15 238 0 61 -2 129 -4 151 -3 21 1 53 9 72 8 19
12 34 10 34 -3 0 -1 10 4 23 28 73 32 280 7 369 -8 31 -24 72 -35 92 -17 29
-18 40 -9 66 7 21 7 39 1 53 -10 21 -17 443 -14 852 1 207 3 245 12 240 3 -2
16 29 28 70 13 41 26 75 30 77 5 3 76 83 139 158 11 14 31 36 42 50 12 14 41
47 64 74 22 27 46 54 51 60 149 163 360 459 369 520 1 6 4 16 8 21 7 11 26
115 27 150 7 134 -19 239 -73 302 -18 21 -18 23 12 82 26 52 30 70 27 124 -5
89 -12 120 -55 232 -39 101 -44 122 -55 205 -9 66 -22 112 -40 138 -17 23 -35
29 -35 12 0 -5 -8 -19 -17 -29 -38 -42 -93 -132 -132 -216 -13 -27 -29 -63
-37 -80 -72 -157 -90 -344 -40 -420 14 -21 12 -25 -17 -57 -35 -37 -56 -63
-203 -245 -55 -66 -103 -120 -109 -120 -10 2 -10 -1 -19 116 -4 47 -9 100 -12
118 -3 18 -7 90 -9 160 -4 149 -7 166 -40 236 -29 61 -61 97 -116 134 -34 22
-53 27 -121 29 -60 3 -86 -1 -104 -13 -24 -15 -25 -14 -147 113 -67 70 -121
135 -120 143 1 9 6 32 11 52 24 92 -10 237 -94 402 -85 165 -93 184 -110 253
-9 38 -20 78 -24 89 -15 37 -23 60 -24 65 -4 15 -31 58 -49 77 l-20 22 -28
-57 c-16 -31 -29 -63 -29 -69 0 -7 -4 -13 -10 -13 -5 0 -10 -10 -10 -23 0 -13
-4 -27 -9 -33 -21 -22 -115 -379 -104 -396 11 -19 -24 -4 -112 47 -53 30 -99
55 -103 55 -4 0 -18 9 -32 19 l-25 20 35 43 c19 24 40 50 47 58 12 15 124 155
175 221 329 417 406 535 434 673 34 163 -1 321 -92 409 -41 39 -77 55 -137 60
-51 4 -70 24 -31 32 108 23 169 66 191 137 11 38 10 195 -3 238 -4 14 -8 77
-10 140 -2 63 -3 124 -3 136 -1 11 -7 29 -15 39 -12 17 -18 14 -85 -55 -158
-163 -262 -356 -257 -478 2 -70 23 -103 84 -132 24 -11 40 -25 37 -30 -4 -6 1
-13 11 -17 13 -5 7 -11 -29 -28 -60 -27 -120 -78 -165 -140 -20 -27 -47 -61
-59 -75 -13 -14 -23 -28 -23 -32 0 -3 -6 -13 -13 -20 -7 -7 -46 -58 -87 -112
l-75 -99 -7 49 c-4 27 -9 63 -11 79 -3 17 -9 57 -15 90 -17 90 -24 144 -27
208 -12 198 -145 337 -311 323 -65 -5 -95 -18 -143 -62 -24 -21 -41 -31 -41
-22 0 27 -70 160 -116 219 -67 87 -169 159 -294 207 -30 11 -49 21 -43 21 18
1 77 61 99 101 15 27 19 58 20 140 1 57 -2 113 -6 125 -7 17 -37 144 -47 195
-1 8 -4 65 -7 125 -4 118 -24 189 -49 179 -8 -3 -27 -21 -43 -41 -16 -20 -34
-41 -40 -47 -14 -15 -114 -164 -114 -171 0 -3 -10 -22 -23 -43 -27 -43 -96
-202 -103 -235 -2 -12 -7 -33 -10 -47 -4 -14 -7 -57 -8 -96 -1 -73 10 -109 48
-151 l19 -23 -24 -1 c-84 -5 -270 -54 -316 -85 -38 -24 -93 -87 -100 -111 -3
-13 -10 -23 -16 -23 -6 0 -7 -3 -4 -7 4 -3 2 -12 -4 -20 -6 -7 -9 -13 -6 -13
3 0 -3 -30 -14 -67 -27 -93 -26 -86 -50 -198 -22 -105 -26 -124 -30 -140 -1
-5 -5 15 -9 45 -11 78 -21 122 -31 143 -5 9 -7 17 -3 17 3 0 1 7 -6 15 -7 8
-10 15 -7 15 11 0 -56 135 -96 195 -88 129 -177 196 -332 249 -83 29 -109 34
-184 35 -41 1 -43 2 -29 19 27 30 45 112 37 172 -14 111 -19 125 -120 336 -26
55 -51 115 -54 133 -3 19 -15 59 -26 90 -12 31 -23 65 -27 75 -6 23 -33 56
-44 56 -5 0 -13 -12 -19 -27z m398 -1409 c7 -10 14 -29 14 -43 1 -14 2 -33 3
-41 3 -31 -24 -114 -48 -151 -26 -39 -81 -74 -126 -80 -20 -3 -25 0 -24 19 0
12 -3 22 -8 22 -5 0 -6 5 -3 11 4 6 7 66 7 133 0 121 0 122 27 138 37 22 140
17 158 -8z m1332 -45 c31 -19 35 -30 31 -98 -3 -52 -43 -133 -80 -165 -39 -32
-66 -44 -115 -49 l-34 -4 4 41 c3 23 7 57 10 76 2 19 7 58 10 85 3 28 8 59 10
70 2 11 4 25 4 31 3 34 112 43 160 13z m-844 -561 c-14 -103 -27 -272 -29
-355 l-1 -53 -55 5 c-30 3 -71 8 -90 10 -19 3 -66 7 -105 10 -38 2 -113 7
-165 11 -52 3 -120 7 -150 9 -30 1 -61 3 -68 4 -16 1 23 80 41 83 6 0 37 2 67
3 52 2 87 7 169 22 52 9 148 49 202 83 57 37 142 127 165 175 9 19 18 35 20
35 3 0 2 -19 -1 -42z m-2084 -50 c7 -24 13 -45 13 -48 1 -3 5 -11 9 -18 13
-20 19 -115 9 -131 -6 -7 -28 -13 -53 -13 -71 -1 -70 -1 -58 30 6 15 10 29 10
32 0 3 9 37 21 75 19 66 25 90 27 108 2 18 11 4 22 -35z m3365 -76 c1 -15 5
-56 8 -92 4 -36 9 -92 12 -125 2 -33 7 -71 9 -85 2 -14 7 -61 10 -105 3 -44 8
-100 10 -125 4 -53 0 -63 -23 -51 -9 5 -37 17 -61 27 -55 23 -71 39 -71 70 0
34 -34 128 -60 163 -24 34 -40 32 -58 -7 -6 -15 -25 -50 -42 -79 -29 -51 -30
-52 -62 -42 -18 6 -58 12 -88 15 -30 2 -73 9 -95 14 -22 5 -71 16 -108 25 -38
9 -78 17 -89 18 -18 1 -19 6 -13 55 9 75 20 99 55 121 23 13 40 17 63 12 31
-7 183 -5 242 3 34 4 157 46 165 55 3 3 16 12 30 20 52 29 109 77 131 113 25
41 33 41 35 0z m-4719 -549 c18 -42 41 -150 34 -162 -4 -5 -35 -22 -71 -37
-36 -16 -93 -42 -127 -60 -52 -26 -65 -29 -74 -18 -6 8 -20 14 -31 14 -11 0
-18 5 -15 13 2 6 1 22 -4 33 -7 20 -17 75 -24 131 -3 26 24 53 54 56 11 1 21
5 21 9 0 4 3 7 8 6 4 -1 32 4 62 11 30 6 73 15 95 18 22 3 42 7 44 9 9 9 17 3
28 -23z"/>
<path d="M3820 9942 c-110 -118 -231 -328 -275 -477 -22 -78 -23 -170 -2 -212
18 -34 68 -76 103 -87 11 -3 30 -20 42 -36 28 -38 56 -41 42 -6 -9 23 -6 25
43 36 84 18 148 72 167 140 11 40 14 151 6 190 -3 14 -8 36 -11 50 -10 45 -14
65 -25 105 -6 22 -13 81 -15 130 -5 104 -9 130 -24 168 -13 33 -19 33 -51 -1z"/>
</g>
</svg>
