<?xml version="1.0" encoding="UTF-8"?>
<svg width="150px" height="150px" viewBox="0 0 150 150" version="1.1" xmlns="http://www.w3.org/2000/svg" xmlns:xlink="http://www.w3.org/1999/xlink">
    <!-- Generator: Sketch 52.6 (67491) - http://www.bohemiancoding.com/sketch -->
    <title>instagram</title>
    <desc>Created with Sketch.</desc>
    <g id="Page-1" stroke="none" stroke-width="1" fill="none" fill-rule="evenodd">
        <g id="instagram" fill="#000000" fill-rule="nonzero">
            <path d="M75.0333333,36.6666667 C53.8333333,36.6666667 36.7333333,53.7666667 36.7333333,74.9666667 C36.7333333,96.1666667 53.8333333,113.266667 75.0333333,113.266667 C96.2333333,113.266667 113.333333,96.1666667 113.333333,74.9666667 C113.333333,53.7666667 96.2333333,36.6666667 75.0333333,36.6666667 Z M75.0333333,99.8666667 C61.3333333,99.8666667 50.1333333,88.7 50.1333333,74.9666667 C50.1333333,61.2333333 61.3,50.0666667 75.0333333,50.0666667 C88.7666667,50.0666667 99.9333333,61.2333333 99.9333333,74.9666667 C99.9333333,88.7 88.7333333,99.8666667 75.0333333,99.8666667 Z M123.833333,35.1 C123.833333,40.0666667 119.833333,44.0333333 114.9,44.0333333 C109.933333,44.0333333 105.966667,40.0333333 105.966667,35.1 C105.966667,30.1666667 109.966667,26.1666667 114.9,26.1666667 C119.833333,26.1666667 123.833333,30.1666667 123.833333,35.1 Z M149.2,44.1666667 C148.633333,32.2 145.9,21.6 137.133333,12.8666667 C128.4,4.13333333 117.8,1.4 105.833333,0.8 C93.5,0.1 56.5333333,0.1 44.2,0.8 C32.2666667,1.36666667 21.6666667,4.1 12.9,12.8333333 C4.13333333,21.5666667 1.43333333,32.1666667 0.833333333,44.1333333 C0.133333333,56.4666667 0.133333333,93.4333333 0.833333333,105.766667 C1.4,117.733333 4.13333333,128.333333 12.9,137.066667 C21.6666667,145.8 32.2333333,148.533333 44.2,149.133333 C56.5333333,149.833333 93.5,149.833333 105.833333,149.133333 C117.8,148.566667 128.4,145.833333 137.133333,137.066667 C145.866667,128.333333 148.6,117.733333 149.2,105.766667 C149.9,93.4333333 149.9,56.5 149.2,44.1666667 Z M133.266667,119 C130.666667,125.533333 125.633333,130.566667 119.066667,133.2 C109.233333,137.1 85.9,136.2 75.0333333,136.2 C64.1666667,136.2 40.8,137.066667 31,133.2 C24.4666667,130.6 19.4333333,125.566667 16.8,119 C12.9,109.166667 13.8,85.8333333 13.8,74.9666667 C13.8,64.1 12.9333333,40.7333333 16.8,30.9333333 C19.4,24.4 24.4333333,19.3666667 31,16.7333333 C40.8333333,12.8333333 64.1666667,13.7333333 75.0333333,13.7333333 C85.9,13.7333333 109.266667,12.8666667 119.066667,16.7333333 C125.6,19.3333333 130.633333,24.3666667 133.266667,30.9333333 C137.166667,40.7666667 136.266667,64.1 136.266667,74.9666667 C136.266667,85.8333333 137.166667,109.2 133.266667,119 Z" id="Shape"></path>
        </g>
    </g>
</svg>