<?xml version="1.0" encoding="UTF-8"?>
<svg width="132px" height="150px" viewBox="0 0 132 150" version="1.1" xmlns="http://www.w3.org/2000/svg" xmlns:xlink="http://www.w3.org/1999/xlink">
    <!-- Generator: Sketch 52.6 (67491) - http://www.bohemiancoding.com/sketch -->
    <title>tiktok</title>
    <desc>Created with Sketch.</desc>
    <g id="Page-1" stroke="none" stroke-width="1" fill="none" fill-rule="evenodd">
        <g id="tiktok" fill="#000000">
            <path d="M131.25,61.4970703 C118.351965,61.5279219 105.770239,57.5054999 95.2822266,49.9980469 L95.2822266,102.357422 C95.2749347,122.215679 82.9457612,139.984833 64.3464359,146.942959 C45.7471106,153.901086 24.7824828,148.587356 11.7429633,133.609994 C-1.29655625,118.632633 -3.67337567,97.1360732 5.77915812,79.6718231 C15.2316919,62.2075729 34.5290595,52.4421775 54.1992187,55.1689453 L54.1992187,81.5039062 C45.1827477,78.6678005 35.3647339,81.9475166 29.8631406,89.6333945 C24.3615474,97.3192723 24.4225161,107.670418 30.0142649,115.290956 C35.6060136,122.911493 45.4619803,126.075328 54.4444173,123.133208 C63.4268544,120.191088 69.50119,111.809419 69.5009766,102.357422 L69.5009766,0 L95.2822266,0 C95.2643187,2.17716804 95.4467278,4.35136777 95.8271484,6.49511719 C97.6377323,16.166943 103.349945,24.6669184 111.621094,29.9970703 C117.443524,33.8469494 124.269867,35.8989277 131.25,35.8974609 L131.25,61.4970703 Z" id="Path"></path>
        </g>
    </g>
</svg>